<svg width="51" height="50" viewBox="0 0 51 50" fill="none" xmlns="http://www.w3.org/2000/svg">
<circle cx="25.5" cy="25" r="25" fill="#4255FF"/>
<path d="M25.5 -1.09278e-06C28.783 -1.23629e-06 32.0339 0.646643 35.0671 1.90301C38.1002 3.15938 40.8562 5.00086 43.1777 7.32233C45.4991 9.64379 47.3406 12.3998 48.597 15.4329C49.8534 18.4661 50.5 21.717 50.5 25C50.5 28.283 49.8534 31.5339 48.597 34.5671C47.3406 37.6002 45.4991 40.3562 43.1777 42.6777C40.8562 44.9991 38.1002 46.8406 35.0671 48.097C32.0339 49.3534 28.783 50 25.5 50L25.5 25L25.5 -1.09278e-06Z" fill="white"/>
<circle cx="25.5" cy="25" r="10" fill="#03070E"/>
</svg>
